<?xml version="1.0" encoding="utf-8"?>
<!-- Generator: Adobe Illustrator 22.0.0, SVG Export Plug-In . SVG Version: 6.00 Build 0)  -->
<svg version="1.1" id="Layer_1" xmlns="http://www.w3.org/2000/svg" xmlns:xlink="http://www.w3.org/1999/xlink" x="0px" y="0px"
	 viewBox="0 0 75 75" style="enable-background:new 0 0 75 75;" xml:space="preserve">
<style type="text/css">
	.st0{fill:#FFFFFF;}
	.st1{fill:#3E4150;}
	.st2{opacity:0.3794;fill:url(#SVGID_1_);enable-background:new    ;}
	.st3{fill:url(#SVGID_2_);}
	.st4{opacity:0.3794;fill:url(#SVGID_3_);enable-background:new    ;}
	.st5{fill:url(#SVGID_4_);}
	.st6{fill:none;}
</style>
<path class="st0" d="M-32.5,75h-51c-6.6,0-12-5.4-12-12V12c0-6.6,5.4-12,12-12h51c6.6,0,12,5.4,12,12v51C-20.5,69.6-25.9,75-32.5,75
	z"/>
<path class="st0" d="M63,75H12C5.4,75,0,69.6,0,63V12C0,5.4,5.4,0,12,0h51c6.6,0,12,5.4,12,12v51C75,69.6,69.6,75,63,75z"/>
<path class="st0" d="M157.2,75h-51c-6.6,0-12-5.4-12-12V12c0-6.6,5.4-12,12-12h51c6.6,0,12,5.4,12,12v51
	C169.2,69.6,163.8,75,157.2,75z"/>
<path class="st0" d="M246.3,75h-51c-6.6,0-12-5.4-12-12V12c0-6.6,5.4-12,12-12h51c6.6,0,12,5.4,12,12v51
	C258.3,69.6,252.9,75,246.3,75z"/>
<path class="st0" d="M-31.3,172.3h-51c-6.6,0-12-5.4-12-12v-51c0-6.6,5.4-12,12-12h51c6.6,0,12,5.4,12,12v51
	C-19.3,166.9-24.7,172.3-31.3,172.3z"/>
<path class="st0" d="M63,172.3H12c-6.6,0-12-5.4-12-12v-51c0-6.6,5.4-12,12-12h51c6.6,0,12,5.4,12,12v51
	C75,166.9,69.6,172.3,63,172.3z"/>
<path class="st0" d="M157.2,172.3h-51c-6.6,0-12-5.4-12-12v-51c0-6.6,5.4-12,12-12h51c6.6,0,12,5.4,12,12v51
	C169.2,166.9,163.8,172.3,157.2,172.3z"/>
<path class="st0" d="M246.3,172.3h-51c-6.6,0-12-5.4-12-12v-51c0-6.6,5.4-12,12-12h51c6.6,0,12,5.4,12,12v51
	C258.3,166.9,252.9,172.3,246.3,172.3z"/>
<title>Logo White</title>
<desc>Created with Sketch.</desc>
<g>
	<g>
		<path class="st1" d="M-93.5-93.6h-2v-1.2c-1,0.8-2.1,1.2-3.4,1.2c-1.5,0-2.7-0.5-3.8-1.6c-1.1-1.1-1.6-2.3-1.6-3.8
			c0-1.5,0.5-2.8,1.6-3.8c1.1-1.1,2.3-1.6,3.8-1.6c1.5,0,2.8,0.5,3.8,1.6c1.1,1.1,1.6,2.3,1.6,3.8V-93.6z M-98.9-95.6
			c0.9,0,1.7-0.3,2.4-1c0.7-0.7,1-1.5,1-2.4c0-0.9-0.3-1.7-1-2.4c-0.7-0.7-1.5-1-2.4-1c-0.9,0-1.7,0.3-2.4,1c-0.7,0.7-1,1.5-1,2.4
			c0,0.9,0.3,1.7,1,2.4C-100.6-95.9-99.8-95.6-98.9-95.6z"/>
		<path class="st1" d="M-91.9-93.6v-6.5c0-1.2,0.4-2.2,1.2-3c0.8-0.8,1.8-1.3,3-1.3c1.3,0,2.4,0.5,3.3,1.5c0.9-1,2-1.5,3.3-1.5
			c1.2,0,2.2,0.4,3,1.3c0.8,0.8,1.3,1.8,1.3,3v6.5h-2v-6.5c0-0.6-0.2-1.2-0.7-1.6c-0.4-0.4-1-0.7-1.6-0.7c-0.6,0-1.2,0.2-1.6,0.7
			c-0.4,0.4-0.7,1-0.7,1.6v6.5h-2v-6.5c0-0.6-0.2-1.2-0.7-1.6c-0.4-0.4-1-0.7-1.6-0.7c-0.6,0-1.2,0.2-1.6,0.7
			c-0.4,0.4-0.7,1-0.7,1.6v6.5H-91.9z"/>
		<path class="st1" d="M-69.8-104.4c1.5,0,2.7,0.5,3.8,1.6c1.1,1.1,1.6,2.3,1.6,3.8c0,1.5-0.5,2.7-1.6,3.8c-1.1,1.1-2.3,1.6-3.8,1.6
			c-1.5,0-2.8-0.5-3.8-1.6c-1.1-1.1-1.6-2.3-1.6-3.8v-10.1h2v6C-72.1-104-71-104.4-69.8-104.4z M-69.8-95.6c0.9,0,1.7-0.3,2.4-1
			c0.7-0.7,1-1.5,1-2.4c0-0.9-0.3-1.7-1-2.4c-0.7-0.7-1.5-1-2.4-1c-0.9,0-1.7,0.3-2.4,1c-0.7,0.7-1,1.5-1,2.4c0,0.9,0.3,1.7,1,2.4
			C-71.5-96-70.7-95.6-69.8-95.6z"/>
		<path class="st1" d="M-62.9-108h2v1.9h-2V-108z M-62.9-104.4h2v10.8h-2V-104.4z"/>
		<path class="st1" d="M-52.5-95.6v2h-3.2c-0.9,0-1.6-0.3-2.3-0.9c-0.6-0.6-0.9-1.4-0.9-2.3l0-11.2h2v3.7h3.5v2H-57v5.6
			c0,0.3,0.1,0.6,0.3,0.8c0.2,0.2,0.5,0.3,0.8,0.3H-52.5z"/>
		<path class="st1" d="M-51.2-108h2v1.9h-2V-108z M-51.2-104.4h2v10.8h-2V-104.4z"/>
		<path class="st1" d="M-45.7-95.2c-1.1-1.1-1.6-2.3-1.6-3.8c0-1.5,0.5-2.8,1.6-3.8c1.1-1.1,2.3-1.6,3.8-1.6c1.5,0,2.8,0.5,3.8,1.6
			c1.1,1.1,1.6,2.3,1.6,3.8c0,1.5-0.5,2.7-1.6,3.8c-1.1,1.1-2.3,1.6-3.8,1.6C-43.4-93.6-44.7-94.1-45.7-95.2z M-44.3-101.4
			c-0.7,0.7-1,1.5-1,2.4c0,0.9,0.3,1.7,1,2.4c0.7,0.7,1.5,1,2.4,1c0.9,0,1.7-0.3,2.4-1c0.7-0.7,1-1.5,1-2.4c0-0.9-0.3-1.7-1-2.4
			c-0.7-0.7-1.5-1-2.4-1C-42.9-102.4-43.6-102-44.3-101.4z"/>
		<path class="st1" d="M-35-93.6V-99c0-1.5,0.5-2.8,1.6-3.8c1.1-1.1,2.3-1.6,3.8-1.6c1.5,0,2.8,0.5,3.8,1.6c1.1,1.1,1.6,2.3,1.6,3.8
			v5.4h-2V-99c0-0.9-0.3-1.7-1-2.4c-0.7-0.7-1.5-1-2.4-1c-0.9,0-1.7,0.3-2.4,1c-0.7,0.7-1,1.5-1,2.4v5.4H-35z"/>
		<path class="st1" d="M-10.9-95.6c0.6,0,1.2-0.1,1.8-0.4c0.6-0.3,1.1-0.6,1.4-1.1l1.7,1.1c-0.5,0.7-1.2,1.3-2.1,1.7
			c-0.9,0.4-1.8,0.7-2.7,0.7c-1.5,0-2.8-0.5-3.8-1.6c-1.1-1.1-1.6-2.3-1.6-3.8c0-1.5,0.5-2.8,1.6-3.8c1.1-1.1,2.3-1.6,3.8-1.6
			c0.9,0,1.8,0.2,2.6,0.7c0.8,0.5,1.4,1.1,1.9,1.9l-1.7,1.1c-0.7-1.1-1.6-1.7-2.9-1.7c-0.9,0-1.7,0.3-2.4,1c-0.7,0.7-1,1.5-1,2.4
			c0,0.9,0.3,1.7,1,2.4C-12.7-95.9-11.9-95.6-10.9-95.6z"/>
		<path class="st1" d="M-3.2-95.2c-1.1-1.1-1.6-2.3-1.6-3.8c0-1.5,0.5-2.8,1.6-3.8c1.1-1.1,2.3-1.6,3.8-1.6c1.5,0,2.8,0.5,3.8,1.6
			c1.1,1.1,1.6,2.3,1.6,3.8c0,1.5-0.5,2.7-1.6,3.8c-1.1,1.1-2.3,1.6-3.8,1.6C-0.9-93.6-2.2-94.1-3.2-95.2z M-1.8-101.4
			c-0.7,0.7-1,1.5-1,2.4c0,0.9,0.3,1.7,1,2.4c0.7,0.7,1.5,1,2.4,1c0.9,0,1.7-0.3,2.4-1c0.7-0.7,1-1.5,1-2.4c0-0.9-0.3-1.7-1-2.4
			c-0.7-0.7-1.5-1-2.4-1C-0.4-102.4-1.2-102-1.8-101.4z"/>
		<path class="st1" d="M18.3-99c0,1.5-0.5,2.7-1.6,3.8c-1.1,1.1-2.3,1.6-3.8,1.6c-1.5,0-2.7-0.5-3.8-1.6C8-96.2,7.5-97.5,7.5-99
			c0-1.5,0.5-2.8,1.6-3.8c1.1-1.1,2.3-1.6,3.8-1.6c1.3,0,2.4,0.4,3.4,1.2v-6h2V-99z M12.9-95.6c0.9,0,1.7-0.3,2.4-1
			c0.7-0.7,1-1.5,1-2.4c0-0.9-0.3-1.7-1-2.4c-0.7-0.7-1.5-1-2.4-1c-0.9,0-1.7,0.3-2.4,1c-0.7,0.7-1,1.5-1,2.4c0,0.9,0.3,1.7,1,2.4
			C11.2-95.9,11.9-95.6,12.9-95.6z"/>
		<path class="st1" d="M22-98c0.2,0.7,0.6,1.3,1.2,1.7c0.6,0.4,1.3,0.7,2,0.7c0.6,0,1.2-0.1,1.8-0.4c0.6-0.3,1.1-0.6,1.4-1.1L30-96
			c-0.5,0.7-1.2,1.3-2.1,1.7c-0.9,0.4-1.8,0.7-2.7,0.7c-1.5,0-2.8-0.5-3.8-1.6c-1.1-1.1-1.6-2.3-1.6-3.8c0-1.5,0.5-2.8,1.6-3.8
			c1.1-1.1,2.3-1.6,3.8-1.6c1.5,0,2.7,0.5,3.8,1.6c1.1,1.1,1.6,2.3,1.6,3.8c0,0.3,0,0.7-0.1,1L22-98z M25.2-102.4
			c-0.7,0-1.4,0.2-2,0.7c-0.6,0.4-1,1-1.2,1.7h6.4c-0.2-0.7-0.6-1.3-1.2-1.7C26.6-102.1,25.9-102.4,25.2-102.4z"/>
		<path class="st1" d="M37.5-102.4c-0.9,0-1.7,0.3-2.4,1c-0.7,0.7-1,1.5-1,2.4v5.4h-2V-99c0-1.5,0.5-2.8,1.6-3.8
			c1.1-1.1,2.3-1.6,3.8-1.6V-102.4z"/>
		<path class="st1" d="M39.5-93.6v-2h6.5c0.3,0,0.6-0.1,0.8-0.3c0.2-0.2,0.3-0.5,0.3-0.8c0-0.3-0.1-0.6-0.3-0.9
			c-0.2-0.2-0.5-0.3-0.8-0.3l-3.7,0c-0.9,0-1.6-0.3-2.2-0.9c-0.6-0.6-0.9-1.4-0.9-2.3s0.3-1.6,0.9-2.2c0.6-0.6,1.4-0.9,2.2-0.9h5.6
			v2h-5.6c-0.3,0-0.6,0.1-0.8,0.3c-0.2,0.2-0.3,0.5-0.3,0.8c0,0.3,0.1,0.6,0.3,0.8c0.2,0.2,0.5,0.3,0.8,0.3h3.7
			c0.9,0,1.6,0.3,2.3,0.9c0.6,0.6,0.9,1.4,0.9,2.3c0,0.9-0.3,1.6-0.9,2.3c-0.6,0.6-1.4,0.9-2.3,0.9H39.5z"/>
	</g>
	<g>
		<linearGradient id="SVGID_1_" gradientUnits="userSpaceOnUse" x1="-150.7747" y1="-101.2743" x2="-119.3987" y2="-101.2743">
			<stop  offset="0" style="stop-color:#FFFFFF"/>
			<stop  offset="1" style="stop-color:#24CDFF"/>
		</linearGradient>
		<path class="st2" d="M-134.5-121.6c6,0,15.1,4.1,15.1,16S-135.1-81-135.1-81s-15.7-12.8-15.7-24.6s9.2-16,15.1-16H-134.5z"/>
		<linearGradient id="SVGID_2_" gradientUnits="userSpaceOnUse" x1="-145.7915" y1="-100.1712" x2="-114.4155" y2="-100.1712">
			<stop  offset="0" style="stop-color:#384DFF"/>
			<stop  offset="1" style="stop-color:#24CDFF"/>
		</linearGradient>
		<path class="st3" d="M-129.5-119.3c6,0,15.1,3.9,15.1,15.1S-130.1-81-130.1-81s-15.7-12.1-15.7-23.2s9.2-15.1,15.1-15.1H-129.5z"
			/>
	</g>
</g>
<g>
	<linearGradient id="SVGID_3_" gradientUnits="userSpaceOnUse" x1="-343.2041" y1="-68.478" x2="-233.1185" y2="-68.478">
		<stop  offset="0" style="stop-color:#FFFFFF"/>
		<stop  offset="1" style="stop-color:#24CDFF"/>
	</linearGradient>
	<path class="st4" d="M-286.1-139.6c20.9,0,53,14.6,53,56.1s-55,86.2-55,86.2s-55-44.7-55-86.2s32.1-56.1,53-56.1H-286.1z"/>
	<linearGradient id="SVGID_4_" gradientUnits="userSpaceOnUse" x1="-325.7203" y1="-64.6079" x2="-215.6347" y2="-64.6079">
		<stop  offset="0" style="stop-color:#384DFF"/>
		<stop  offset="1" style="stop-color:#24CDFF"/>
	</linearGradient>
	<path class="st5" d="M-268.6-131.9c20.9,0,53,13.8,53,53s-55,81.5-55,81.5s-55-42.3-55-81.5s32.1-53,53-53H-268.6z"/>
</g>
<g>
	<defs>
		<rect id="SVGID_5_" x="9.8" y="4.9" width="55.3" height="65.2"/>
	</defs>
	<clipPath id="SVGID_6_">
		<use xlink:href="#SVGID_5_"  style="overflow:visible;"/>
	</clipPath>
	<g style="clip-path:url(#SVGID_6_);">
		
			<image style="overflow:visible;" width="1600" height="989" xlink:href="../../../../../p17s2tfgc31jte13d51pea1l2oblr3.png"  transform="matrix(9.531250e-02 0 0 9.531250e-02 -38.75 -9.5384)">
		</image>
	</g>
</g>
<image style="overflow:visible;" width="420" height="375" xlink:href="../../../../../wordpressIcon2.png"  transform="matrix(0.1757 0 0 0.1757 183.9456 101.8979)">
</image>
<image style="overflow:visible;" width="512" height="512" xlink:href="../../../../../HTML_Logo.png"  transform="matrix(0.1237 0 0 0.1237 -88.5374 103.1667)">
</image>
<image style="overflow:visible;" width="1360" height="915" xlink:href="../../../../../4j23hj4h23j4hkj2-1.png"  transform="matrix(4.954462e-02 0 0 4.954462e-02 187.143 14.6667)">
</image>
<image style="overflow:visible;" width="2000" height="2821" xlink:href="../../../../../CSS3_logo_and_wordmark.svg.png"  transform="matrix(2.335018e-02 0 0 2.335018e-02 14.1498 101.2635)">
</image>
<image style="overflow:visible;" width="180" height="180" xlink:href="../../../../../images.png"  transform="matrix(0.3852 0 0 0.3852 97.0405 2.6667)">
</image>
<image style="overflow:visible;" width="375" height="375" xlink:href="../../../../../nodejs-logo-vector-png-1-49-2-98-375.png"  transform="matrix(0.1747 0 0 0.1747 99.9223 102.07)">
</image>
<g>
	<defs>
		<rect id="SVGID_7_" x="-89.8" y="12.4" width="63.4" height="49"/>
	</defs>
	<clipPath id="SVGID_8_">
		<use xlink:href="#SVGID_7_"  style="overflow:visible;"/>
	</clipPath>
	<g transform="matrix(1 0 0 1 -7.629395e-06 0)" style="clip-path:url(#SVGID_8_);">
		
			<image style="overflow:visible;" width="700" height="467" xlink:href="../../../../../ios-logo-icon-100733550-large.3x2.jpg"  transform="matrix(0.1611 0 0 0.1611 -114.5862 0.9065)">
		</image>
	</g>
</g>
<rect x="-685.5" y="254.5" class="st6" width="1920" height="1280"/>
</svg>
